<svg width="100%" viewBox="0 0 680 620">
<defs>
<marker id="arrow" viewBox="0 0 10 10" refX="8" refY="5" markerWidth="6" markerHeight="6" orient="auto-start-reverse"><path d="M2 1L8 5L2 9" fill="none" stroke="context-stroke" stroke-width="1.5" stroke-linecap="round" stroke-linejoin="round"/></marker>
</defs>

<!-- v1 side -->
<text class="th" x="160" y="30" text-anchor="middle">v1（旧）</text>

<!-- v1 master -->
<g class="c-gray">
<rect x="60" y="46" width="200" height="40" rx="8" stroke-width="0.5"/>
<text class="t" x="160" y="70" text-anchor="middle">prompt-master.md</text>
</g>
<line x1="160" y1="86" x2="160" y2="116" class="arr" marker-end="url(#arrow)"/>

<!-- v1 implementation prompts -->
<g class="c-gray">
<rect x="60" y="116" width="200" height="56" rx="8" stroke-width="0.5"/>
<text class="t" x="160" y="138" text-anchor="middle">4つの実装プロンプト</text>
<text class="ts" x="160" y="158" text-anchor="middle">禁止事項は末尾 / 抽象ルール</text>
</g>
<line x1="160" y1="172" x2="160" y2="202" class="arr" marker-end="url(#arrow)"/>

<!-- v1 self QA -->
<g class="c-gray">
<rect x="60" y="202" width="200" height="40" rx="8" stroke-width="0.5"/>
<text class="t" x="160" y="226" text-anchor="middle">Claude Code 自己QA</text>
</g>
<line x1="160" y1="242" x2="160" y2="272" class="arr" marker-end="url(#arrow)"/>

<!-- v1 output -->
<g class="c-coral">
<rect x="60" y="272" width="200" height="40" rx="8" stroke-width="0.5"/>
<text class="th" x="160" y="296" text-anchor="middle">出力（品質低い）</text>
</g>

<!-- DIVIDER -->
<line x1="330" y1="20" x2="330" y2="320" stroke="var(--color-border-tertiary)" stroke-width="0.5" stroke-dasharray="4 4"/>

<!-- v2 side -->
<text class="th" x="500" y="30" text-anchor="middle">v2（改訂版）</text>

<!-- v2 CLAUDE.md layer -->
<g class="c-purple">
<rect x="390" y="46" width="220" height="50" rx="8" stroke-width="0.5"/>
<text class="th" x="500" y="66" text-anchor="middle">CLAUDE.md（永続化）</text>
<text class="ts" x="500" y="84" text-anchor="middle">禁止事項が自動適用</text>
</g>

<!-- v2 master -->
<g class="c-teal">
<rect x="390" y="110" width="220" height="40" rx="8" stroke-width="0.5"/>
<text class="t" x="500" y="134" text-anchor="middle">prompt-master.md</text>
</g>
<line x1="500" y1="96" x2="500" y2="110" class="arr" marker-end="url(#arrow)"/>
<line x1="500" y1="150" x2="500" y2="170" class="arr" marker-end="url(#arrow)"/>

<!-- v2 implementation prompts -->
<g class="c-teal">
<rect x="390" y="170" width="220" height="68" rx="8" stroke-width="0.5"/>
<text class="t" x="500" y="192" text-anchor="middle">4つの実装プロンプト v2</text>
<text class="ts" x="500" y="210" text-anchor="middle">禁止事項が冒頭</text>
<text class="ts" x="500" y="226" text-anchor="middle">座標テンプレート + Wrong/Right</text>
</g>
<line x1="500" y1="238" x2="500" y2="260" class="arr" marker-end="url(#arrow)"/>

<!-- v2 user QA -->
<g class="c-amber">
<rect x="390" y="260" width="220" height="50" rx="8" stroke-width="0.5"/>
<text class="th" x="500" y="280" text-anchor="middle">ユーザーが画像で確認</text>
<text class="ts" x="500" y="298" text-anchor="middle">フィードバック → 修正ループ</text>
</g>

<!-- v2 loop arrow -->
<path d="M612 285 C640 285, 640 200, 612 200" fill="none" stroke="var(--color-border-secondary)" stroke-width="1" marker-end="url(#arrow)"/>
<text class="ts" x="646" y="246" text-anchor="start">修正</text>

<!-- ========== BOTTOM: What changed ========== -->
<text class="th" x="340" y="370" text-anchor="middle">変更点のまとめ</text>

<!-- Change 1 -->
<g class="c-purple">
<rect x="40" y="390" width="185" height="80" rx="8" stroke-width="0.5"/>
<text class="th" x="132" y="414" text-anchor="middle">New: CLAUDE.md</text>
<text class="ts" x="132" y="434" text-anchor="middle">禁止事項を永続化</text>
<text class="ts" x="132" y="452" text-anchor="middle">毎回の指示が不要に</text>
</g>

<!-- Change 2 -->
<g class="c-teal">
<rect x="245" y="390" width="190" height="80" rx="8" stroke-width="0.5"/>
<text class="th" x="340" y="414" text-anchor="middle">Changed: 内部構造</text>
<text class="ts" x="340" y="434" text-anchor="middle">禁止事項が末尾→冒頭</text>
<text class="ts" x="340" y="452" text-anchor="middle">抽象ルール→具体コード</text>
</g>

<!-- Change 3 -->
<g class="c-amber">
<rect x="455" y="390" width="185" height="80" rx="8" stroke-width="0.5"/>
<text class="th" x="547" y="414" text-anchor="middle">Changed: QA主体</text>
<text class="ts" x="547" y="434" text-anchor="middle">自己QA→ユーザー確認</text>
<text class="ts" x="547" y="452" text-anchor="middle">修正ループを明示化</text>
</g>

<!-- Not changed -->
<rect x="40" y="500" width="600" height="56" rx="8" fill="var(--color-background-secondary)" stroke="var(--color-border-tertiary)" stroke-width="0.5"/>
<text class="th" x="340" y="522" text-anchor="middle">変わっていないもの</text>
<text class="ts" x="340" y="542" text-anchor="middle">master → 実装プロンプトの2段階フロー / prompt-eyecatch / prompt-diagram / 6つの品質次元</text>

</svg>